<svg width="512" height="512" viewBox="0 0 200 200" xmlns="http://www.w3.org/2000/svg">

  <!-- Light green background -->
  <rect width="100%" height="100%" fill="#c8e6c9" rx="16"/>

  <!-- Shooting star — going left, blue -->
  <line x1="170" y1="15" x2="30" y2="35" stroke="#2196f3" stroke-width="2.5" stroke-linecap="round"/>
  <line x1="170" y1="15" x2="140" y2="20" stroke="#bbdefb" stroke-width="1.2" stroke-linecap="round" opacity="0.7"/>
  <polygon points="170,12 171.5,14 174,14.5 172,16 172.5,18.5 170,17 167.5,18.5 168,16 166,14.5 168.5,14" fill="#2196f3" opacity="0.9"/>
  <!-- Shooting star tail glow -->
  <line x1="170" y1="15" x2="100" y2="25" stroke="#2196f3" stroke-width="0.8" opacity="0.3" stroke-linecap="round"/>
    <circle cx="25" cy="20" r="1.5" fill="#fff" opacity="0.8"/>
  <circle cx="60" cy="12" r="1" fill="#fff" opacity="0.6"/>
  <circle cx="90" cy="8" r="1.2" fill="#fff" opacity="0.7"/>
  <circle cx="45" cy="30" r="0.8" fill="#fff" opacity="0.5"/>
  <circle cx="180" cy="50" r="1" fill="#fff" opacity="0.6"/>
  <circle cx="15" cy="55" r="1.2" fill="#fff" opacity="0.7"/>

  <!-- Open book — left page -->
  <path d="M60,140 L100,130 L100,165 L60,172 Z" fill="#fff9c4" stroke="#8d6e63" stroke-width="1"/>
  <!-- Open book — right page -->
  <path d="M100,130 L140,140 L140,172 L100,165 Z" fill="#fffde7" stroke="#8d6e63" stroke-width="1"/>
  <!-- Book spine -->
  <line x1="100" y1="130" x2="100" y2="165" stroke="#6d4c41" stroke-width="1.5"/>
  <!-- Left page lines -->
  <line x1="70" y1="144" x2="95" y2="138" stroke="#bcaaa4" stroke-width="0.6" opacity="0.6"/>
  <line x1="70" y1="150" x2="95" y2="144" stroke="#bcaaa4" stroke-width="0.6" opacity="0.6"/>
  <line x1="70" y1="156" x2="95" y2="150" stroke="#bcaaa4" stroke-width="0.6" opacity="0.6"/>
  <line x1="70" y1="162" x2="95" y2="156" stroke="#bcaaa4" stroke-width="0.6" opacity="0.5"/>
  <!-- Right page lines -->
  <line x1="105" y1="138" x2="133" y2="144" stroke="#bcaaa4" stroke-width="0.6" opacity="0.6"/>
  <line x1="105" y1="144" x2="133" y2="150" stroke="#bcaaa4" stroke-width="0.6" opacity="0.6"/>
  <line x1="105" y1="150" x2="133" y2="156" stroke="#bcaaa4" stroke-width="0.6" opacity="0.6"/>
  <line x1="105" y1="156" x2="133" y2="162" stroke="#bcaaa4" stroke-width="0.6" opacity="0.5"/>
  <!-- Book cover thickness -->
  <path d="M60,172 L60,175 L140,175 L140,172" fill="#8d6e63" stroke="#6d4c41" stroke-width="0.5"/>

  <!-- Cat face on the book -->
  <!-- Cat head -->
  <circle cx="100" cy="112" r="11" fill="#e0e0e0"/>
  <!-- Left ear -->
  <polygon points="92,104 89,90 96,102" fill="#9e9e9e"/>
  <polygon points="93,103 90,93 95,102" fill="#bdbdbd"/>
  <!-- Right ear -->
  <polygon points="108,104 111,90 104,102" fill="#9e9e9e"/>
  <polygon points="107,103 110,93 105,102" fill="#bdbdbd"/>
  <!-- Cat eyes -->
  <ellipse cx="95" cy="111" rx="2.5" ry="3" fill="#1a1a1a"/>
  <ellipse cx="105" cy="111" rx="2.5" ry="3" fill="#1a1a1a"/>
  <!-- Eye shine -->
  <circle cx="96" cy="110" r="0.8" fill="#fff" opacity="0.8"/>
  <circle cx="106" cy="110" r="0.8" fill="#fff" opacity="0.8"/>
  <!-- Cat nose -->
  <polygon points="100,114 98,116 102,116" fill="#ff5252"/>
  <!-- Cat mouth -->
  <line x1="100" y1="116" x2="100" y2="118" stroke="#bf360c" stroke-width="0.6"/>
  <path d="M97,118 Q100,120 103,118" fill="none" stroke="#bf360c" stroke-width="0.6"/>
  <!-- Cat whiskers -->
  <line x1="88" y1="114" x2="78" y2="112" stroke="#bf360c" stroke-width="0.5"/>
  <line x1="88" y1="116" x2="78" y2="117" stroke="#bf360c" stroke-width="0.5"/>
  <line x1="112" y1="114" x2="122" y2="112" stroke="#bf360c" stroke-width="0.5"/>
  <line x1="112" y1="116" x2="122" y2="117" stroke="#bf360c" stroke-width="0.5"/>

  <!-- ct text below book -->
  <text x="100" y="192" font-family="Arial, sans-serif" font-size="14" fill="#2e7d32" text-anchor="middle" font-weight="bold">ct</text>

</svg>